HIERARCHY
ROOT Hips
{
	OFFSET 0.00000 0.00000 0.00000
	CHANNELS 6 Xposition Yposition Zposition Zrotation Yrotation Xrotation 
	JOINT LHipJoint
	{
		OFFSET 0 0 0
		CHANNELS 3 Zrotation Yrotation Xrotation
		JOINT LeftUpLeg
		{
			OFFSET 1.53139 -1.83434 0.76626
			CHANNELS 3 Zrotation Yrotation Xrotation
			JOINT LeftLeg
			{
				OFFSET 2.56112 -7.03663 0.00000
				CHANNELS 3 Zrotation Yrotation Xrotation
				JOINT LeftFoot
				{
					OFFSET 2.59983 -7.14299 0.00000
					CHANNELS 3 Zrotation Yrotation Xrotation
					JOINT LeftToeBase
					{
						OFFSET 0.13742 -0.37757 2.00054
						CHANNELS 3 Zrotation Yrotation Xrotation
						End Site
						{
							OFFSET 0.00000 -0.00000 1.02897
						}
					}
				}
			}
		}
	}
	JOINT RHipJoint
	{
		OFFSET 0 0 0
		CHANNELS 3 Zrotation Yrotation Xrotation
		JOINT RightUpLeg
		{
			OFFSET -1.40122 -1.83435 0.76627
			CHANNELS 3 Zrotation Yrotation Xrotation
			JOINT RightLeg
			{
				OFFSET -2.54052 -6.98003 0.00000
				CHANNELS 3 Zrotation Yrotation Xrotation
				JOINT RightFoot
				{
					OFFSET -2.63179 -7.23079 0.00000
					CHANNELS 3 Zrotation Yrotation Xrotation
					JOINT RightToeBase
					{
						OFFSET -0.24131 -0.66299 2.03908
						CHANNELS 3 Zrotation Yrotation Xrotation
						End Site
						{
							OFFSET -0.00000 -0.00000 1.07391
						}
					}
				}
			}
		}
	}
	JOINT LowerBack
	{
		OFFSET 0 0 0
		CHANNELS 3 Zrotation Yrotation Xrotation
		JOINT Spine
		{
			OFFSET 0.01174 2.10302 -0.29778
			CHANNELS 3 Zrotation Yrotation Xrotation
			JOINT Spine1
			{
				OFFSET 0.00772 2.13227 -0.01247
				CHANNELS 3 Zrotation Yrotation Xrotation
				JOINT Neck
				{
					OFFSET 0 0 0
					CHANNELS 3 Zrotation Yrotation Xrotation
					JOINT Neck1
					{
						OFFSET -0.09219 1.60848 0.31481
						CHANNELS 3 Zrotation Yrotation Xrotation
						JOINT Head
						{
							OFFSET 0.13974 1.65456 -0.31134
							CHANNELS 3 Zrotation Yrotation Xrotation
							End Site
							{
								OFFSET 0.04742 1.69515 -0.14578
							}
						}
					}
				}
				JOINT LeftShoulder
				{
					OFFSET 0 0 0
					CHANNELS 3 Zrotation Yrotation Xrotation
					JOINT LeftArm
					{
						OFFSET 3.24909 1.02882 -0.23993
						CHANNELS 3 Zrotation Yrotation Xrotation
						JOINT LeftForeArm
						{
							OFFSET 5.32955 -0.00000 -0.00000
							CHANNELS 3 Zrotation Yrotation Xrotation
							JOINT LeftHand
							{
								OFFSET 3.69232 -0.00000 -0.00000
								CHANNELS 3 Zrotation Yrotation Xrotation
								JOINT LeftFingerBase
								{
									OFFSET 0 0 0
									CHANNELS 3 Zrotation Yrotation Xrotation
									JOINT LeftHandIndex1
									{
										OFFSET 0.53660 -0.00000 -0.00000
										CHANNELS 3 Zrotation Yrotation Xrotation
										End Site
										{
											OFFSET 0.43262 -0.00000 -0.00000
										}
									}
								}
								JOINT LThumb
								{
									OFFSET 0 0 0
									CHANNELS 3 Zrotation Yrotation Xrotation
									End Site
									{
										OFFSET 0.43922 -0.00000 0.43922
									}
								}
							}
						}
					}
				}
				JOINT RightShoulder
				{
					OFFSET 0 0 0
					CHANNELS 3 Zrotation Yrotation Xrotation
					JOINT RightArm
					{
						OFFSET -3.21387 0.93002 -0.34594
						CHANNELS 3 Zrotation Yrotation Xrotation
						JOINT RightForeArm
						{
							OFFSET -5.23431 -0.00000 0.00000
							CHANNELS 3 Zrotation Yrotation Xrotation
							JOINT RightHand
							{
								OFFSET -3.55301 -0.00000 -0.00000
								CHANNELS 3 Zrotation Yrotation Xrotation
								JOINT RightFingerBase
								{
									OFFSET 0 0 0
									CHANNELS 3 Zrotation Yrotation Xrotation
									JOINT RightHandIndex1
									{
										OFFSET -0.77252 -0.00000 -0.00000
										CHANNELS 3 Zrotation Yrotation Xrotation
										End Site
										{
											OFFSET -0.62283 -0.00000 -0.00000
										}
									}
								}
								JOINT RThumb
								{
									OFFSET 0 0 0
									CHANNELS 3 Zrotation Yrotation Xrotation
									End Site
									{
										OFFSET -0.63234 -0.00000 0.63234
									}
								}
							}
						}
					}
				}
			}
		}
	}
}
MOTION
Frames: 8
Frame Time: .0083333
12.3352 17.9662 -18.7273 0 0 0 0 0 0 -21 0 0 0 0 0 0 0 0 0 0 0 0 0 0 21 0 0 0 0 0 0 0 0 0 0 0 0 0 0 0 0 0 0 0 0 0 0 -16 0 0 21 0 0 11 0 0 0 -8 0 0 0 0 0 0 0 0 0 0 0 0 0 0 0 0 0 0 0 0 8 0 0 0 0 0 0 0 0 0 0 0 0 0 0 0 0 0
12.3352 17.9662 -18.7273 4.3078 3.2928 0.6778 0.0000 0.0000 0.0000 -25.7424 1.6919 16.2814 0.6067 4.9857 13.8678 -0.1415 -7.0942 5.2139 1.6798 -8.1646 -23.2153 0.0000 0.0000 0.0000 17.7520 6.1640 -22.2483 -1.9219 -8.7014 24.8657 -0.0042 -0.8679 -1.8484 -0.3385 -3.7388 10.3429 -4.1940 -0.7757 11.1965 0.2748 -1.5356 0.9375 2.8893 -0.6601 -5.1814 -13.7723 -7.8103 -20.8701 10.9831 -9.8640 26.6458 4.8660 -4.3059 13.8372 -0.0000 0.0000 0.0000 -86.6487 -1.3218 23.0560 22.0307 -33.0117 -6.6026 -0.0000 -0.0000 1.7705 23.1994 24.2897 9.9985 -7.1250 0.0000 -0.0000 -6.7505 56.0039 -1.8282 -0.0000 0.0000 0.0000 90.3689 -4.1821 2.4676 -11.6320 19.2504 -1.9793 0.0000 0.0000 15.1870 -14.6892 7.0110 -1.8327 7.1250 -0.0000 -0.0000 8.8490 -22.7577 4.7927
12.3162 17.9930 -18.5743 4.1160 3.1842 0.6193 0.0000 0.0000 0.0000 -25.5654 1.0632 14.9895 0.9040 6.0591 16.9559 -0.1151 -7.0623 6.5388 1.5046 -7.7474 -21.9493 0.0000 0.0000 0.0000 18.1998 5.6192 -21.6405 -1.8880 -8.6289 24.6411 -0.0120 -0.2870 -2.1989 -0.3388 -3.7404 10.3473 -3.9957 -0.7316 11.1901 0.3057 -1.4502 0.9467 2.7968 -0.6224 -5.1789 -13.8762 -7.8891 -21.0679 11.0846 -9.9704 26.8619 4.9098 -4.3440 14.0025 -0.0000 -0.0000 0.0000 -86.8111 -1.0271 22.7949 21.6240 -32.5494 -6.3823 -0.0000 -0.0000 1.9260 23.2341 24.9826 10.2769 -7.1250 0.0000 -0.0000 -6.9947 56.7309 -2.0180 -0.0000 -0.0000 0.0000 90.4533 -4.1953 2.5237 -11.6144 19.2238 -1.9735 0.0000 0.0000 14.9888 -14.7628 7.0107 -1.8422 7.1250 -0.0000 -0.0000 8.7953 -22.7552 4.7634
12.2934 18.0189 -18.4246 3.8237 3.0817 0.5298 0.0000 0.0000 0.0000 -25.1720 0.6215 13.6218 1.2449 7.0744 19.9360 -0.0743 -7.1626 8.2434 1.3513 -7.3590 -20.7835 0.0000 0.0000 0.0000 18.7802 5.0806 -21.0520 -1.8604 -8.5690 24.4562 -0.0189 0.3527 -2.4944 -0.3362 -3.7260 10.3071 -3.7937 -0.7075 11.1433 0.4188 -1.3850 0.9492 2.7906 -0.5942 -5.1569 -13.7678 -7.8692 -21.0750 10.9792 -9.9490 26.9015 4.8531 -4.3368 14.0029 0.0000 0.0000 0.0000 -87.0092 -0.6129 22.6308 21.3121 -32.1909 -6.2154 -0.0000 -0.0000 2.0493 23.2688 25.4541 10.4712 -7.1250 0.0000 -0.0000 -7.1573 57.2268 -2.1511 0.0000 0.0000 0.0000 90.4530 -4.2753 2.5561 -11.6612 19.2946 -1.9889 0.0000 0.0000 14.9656 -14.6072 6.8438 -1.7788 7.1250 -0.0000 -0.0000 8.9162 -22.9311 4.7941
12.2699 18.0367 -18.2761 3.5833 3.1131 0.4433 0.0000 0.0000 0.0000 -24.7694 0.2643 12.3735 1.5903 7.9547 22.5766 -0.0021 -7.2890 10.3465 1.2500 -7.0885 -19.9779 0.0000 0.0000 0.0000 19.2519 4.7073 -20.3868 -1.8326 -8.5083 24.2690 -0.0249 0.7338 -2.8153 -0.3646 -3.8786 10.7355 -3.6484 -0.7490 11.0931 0.5331 -1.4136 0.9639 2.8313 -0.6116 -5.1118 -13.7592 -7.8208 -20.8510 10.9667 -9.8895 26.7139 4.8547 -4.3187 13.8642 -0.0000 0.0000 0.0000 -87.2458 -0.2538 22.3026 20.9326 -31.7495 -6.0144 -0.0000 -0.0000 2.3768 23.4375 24.8281 10.3167 -7.1250 0.0000 -0.0000 -6.7127 56.6141 -1.9172 -0.0000 0.0000 0.0000 90.3916 -4.2275 2.4945 -11.6129 19.2216 -1.9730 0.0000 0.0000 15.2152 -14.4080 6.6820 -1.7122 7.1250 -0.0000 -0.0000 9.0693 -23.1027 4.8423
12.2491 18.0511 -18.1260 3.4897 3.2498 0.4399 0.0000 0.0000 0.0000 -24.5250 -0.2591 11.0899 1.9660 8.7949 25.1558 0.1362 -7.0912 12.8035 0.9464 -6.1958 -17.3535 0.0000 0.0000 0.0000 19.5120 4.3899 -19.7848 -1.8031 -8.4434 24.0690 -0.0319 0.9116 -3.1757 -0.4001 -4.0612 11.2488 -3.5640 -0.8099 11.0152 0.5665 -1.4793 0.9600 2.8265 -0.6464 -5.0687 -13.6980 -7.7921 -20.6846 10.9436 -9.8745 26.6043 4.8362 -4.3140 13.7745 0.0000 -0.0000 0.0000 -87.3553 0.0414 22.0119 20.3769 -31.0938 -5.7247 -0.0000 -0.0000 2.6365 24.0839 24.1714 10.3718 -7.1250 0.0000 -0.0000 -5.7627 56.0666 -1.5680 0.0000 -0.0000 0.0000 90.4056 -4.1365 2.5137 -11.5977 19.1986 -1.9680 0.0000 0.0000 15.3668 -14.3957 6.5155 -1.6683 7.1250 -0.0000 -0.0000 9.0864 -23.2727 4.8157
12.2286 18.0691 -17.9773 3.2813 3.4279 0.5012 0.0000 0.0000 0.0000 -24.1420 -0.9175 9.7428 2.3673 9.5925 27.6670 0.3369 -6.6703 15.4043 0.5597 -4.7921 -13.3166 0.0000 0.0000 0.0000 19.8966 4.0332 -19.2739 -1.7705 -8.3708 23.8461 -0.0395 1.1135 -3.5329 -0.3828 -3.9733 11.0016 -3.3025 -0.8491 10.8840 0.5725 -1.4944 0.9606 2.6839 -0.6609 -5.0001 -13.5369 -7.8390 -20.8592 10.9139 -9.9783 26.7078 4.7766 -4.3404 13.8592 0.0000 -0.0000 0.0000 -87.2387 0.3793 22.1935 19.9571 -30.5907 -5.5095 -0.0000 -0.0000 2.4826 24.1740 25.4119 10.9029 -7.1250 0.0000 -0.0000 -6.1575 57.3825 -1.8721 0.0000 -0.0000 0.0000 90.5399 -4.0660 2.6635 -11.6814 19.3252 -1.9956 0.0000 0.0000 15.0607 -14.3141 6.5463 -1.6662 7.1250 -0.0000 -0.0000 9.1446 -23.2439 4.8534
12.2058 18.0876 -17.8324 2.9747 3.6544 0.4886 0.0000 0.0000 0.0000 -23.6170 -1.5604 8.4663 2.7900 10.3471 30.1083 0.5305 -6.7101 17.8264 0.3457 -3.7779 -10.4528 0.0000 0.0000 0.0000 20.4196 3.5460 -18.6967 -1.7293 -8.2780 23.5616 -0.0465 1.3361 -3.8256 -0.3556 -3.8310 10.6016 -3.0153 -0.8990 10.9004 0.6623 -1.5224 0.8993 2.6216 -0.6776 -5.0766 -13.5561 -7.8912 -20.9245 10.9742 -10.0771 26.8740 4.7901 -4.3757 13.9653 0.0000 -0.0000 0.0000 -87.2367 0.7919 22.3110 19.5683 -30.1187 -5.3130 -0.0000 -0.0000 2.6878 23.5618 26.4327 10.9860 -7.1250 0.0000 -0.0000 -7.2751 58.3042 -2.3757 0.0000 -0.0000 0.0000 90.5777 -4.1355 2.8943 -11.7997 19.5036 -2.0349 0.0000 0.0000 14.7447 -14.1955 6.5479 -1.6523 7.1250 -0.0000 -0.0000 9.2314 -23.2460 4.9002
